<?xml version="1.0" standalone="no"?>
<!DOCTYPE svg PUBLIC "-//W3C//DTD SVG 20010904//EN"
 "http://www.w3.org/TR/2001/REC-SVG-20010904/DTD/svg10.dtd">
<svg version="1.0" xmlns="http://www.w3.org/2000/svg"
 width="700.000000pt" height="700.000000pt" viewBox="0 0 700.000000 700.000000"
 preserveAspectRatio="xMidYMid meet">
<metadata>
Created by potrace 1.14, written by Peter Selinger 2001-2017
</metadata>
<g transform="translate(0.000000,700.000000) scale(0.100000,-0.100000)"
fill="#000000" stroke="none">
<path d="M2500 6251 c-123 -39 -218 -122 -272 -238 -43 -91 -50 -218 -19 -311
63 -187 206 -292 414 -307 102 -6 168 -25 231 -65 92 -59 156 -140 186 -238
19 -61 20 -93 20 -608 l0 -544 -32 -1 c-203 -4 -263 -17 -356 -79 -299 -200
-235 -652 108 -775 39 -14 131 -23 248 -25 l32 0 0 -538 c0 -582 -2 -606 -55
-695 -56 -95 -155 -175 -250 -202 -27 -8 -84 -17 -125 -20 -137 -10 -226 -46
-308 -125 -179 -173 -176 -464 6 -631 103 -94 195 -124 351 -116 176 10 293
35 436 92 104 42 269 134 295 165 3 3 24 20 47 39 l43 33 42 -35 c65 -52 186
-130 248 -159 106 -50 126 -58 194 -79 71 -21 75 -22 161 -40 101 -20 265 -23
334 -5 120 31 230 116 283 219 72 142 62 319 -25 446 -82 122 -194 182 -362
196 -128 11 -163 22 -249 79 -83 55 -145 144 -171 244 -12 46 -15 154 -15 594
0 505 1 538 18 539 9 0 55 2 102 3 112 3 153 12 225 50 123 64 209 186 229
324 30 211 -88 403 -294 478 -39 13 -89 18 -262 23 -17 1 -18 34 -18 544 0
343 4 557 11 582 37 143 158 271 295 311 28 8 84 17 125 20 89 6 102 8 155 27
170 62 288 233 285 415 -3 202 -141 372 -343 422 -45 12 -207 9 -288 -4 -234
-38 -439 -127 -618 -268 l-62 -50 -48 39 c-86 71 -209 144 -319 191 -210 89
-497 127 -633 83z"/>
</g>
</svg>
